<svg width="38" height="44" fill="none" xmlns="http://www.w3.org/2000/svg"><path d="M37.174 44H19.826a.77.77 0 01-.584-.28 1.038 1.038 0 01-.242-.677V.957c0-.254.087-.497.242-.677a.773.773 0 01.584-.28c.077 0 .153.012.226.036L37.4 5.776a.835.835 0 01.433.343c.108.166.167.369.167.577v36.347c0 .254-.087.497-.242.677a.773.773 0 01-.584.28z" fill="#FEFEFE"/><path d="M13.898 22.956H.826c-.456 0-.826.429-.826.957v19.13c0 .529.37.957.826.957h13.072c.456 0 .826-.428.826-.957v-19.13c0-.528-.37-.957-.826-.957z" fill="#DDD"/><path d="M33.87 4.609v34.61c0 .253.087.496.242.676a.77.77 0 00.584.28c.219 0 .429-.1.584-.28a1.04 1.04 0 00.242-.677V5.155l-1.652-.546zm-4.13-1.367V39.22c0 .253.086.497.241.676.155.18.365.28.584.28.22 0 .43-.1.584-.28a1.04 1.04 0 00.242-.676V3.789l-1.652-.547zm-3.305 36.933c.22 0 .43-.101.584-.28a1.04 1.04 0 00.242-.677V2.422l-1.652-.547v37.343c0 .254.087.497.242.676.155.18.365.28.584.28zm-4.13-.001c.219 0 .429-.1.584-.28.155-.18.242-.422.242-.676V1.053L21.479.506v38.712c0 .253.087.497.242.676.154.18.364.28.584.28z" fill="#2F89DF" fill-opacity=".25"/><path d="M22.304 15.304H7.435c-.22 0-.43.101-.584.28a1.04 1.04 0 00-.242.677v26.782c0 .254.087.497.242.677.155.18.365.28.584.28h14.87c.218 0 .429-.1.584-.28a1.04 1.04 0 00.242-.677V16.261c0-.254-.087-.497-.242-.676a.774.774 0 00-.585-.28z" fill="#363636"/><path d="M19.061 19.13h-8.383c-.422 0-.765.397-.765.886v2.055c0 .49.343.886.765.886h8.383c.423 0 .765-.396.765-.886v-2.055c0-.489-.342-.886-.765-.886zm.081 5.74h-8.545c-.378 0-.684.354-.684.792v2.243c0 .438.306.792.684.792h8.545c.378 0 .684-.354.684-.792v-2.243c0-.438-.306-.793-.684-.793zm-.081 5.739h-8.383c-.422 0-.765.396-.765.886v2.055c0 .49.343.886.765.886h8.383c.423 0 .765-.396.765-.886v-2.055c0-.49-.342-.886-.765-.886z" fill="#2F89DF"/><path d="M15.695 37.304h-1.652c-.219 0-.429.1-.584.28a1.04 1.04 0 00-.242.677V44h3.305v-5.74a1.04 1.04 0 00-.242-.676.774.774 0 00-.585-.28z" fill="#FEFEFE"/></svg>