<svg width="125" height="130" fill="none" xmlns="http://www.w3.org/2000/svg"><path d="M0 115.227c0 3.918 1.497 7.676 4.16 10.446C6.824 128.444 10.437 130 14.204 130h96.591c3.768 0 7.381-1.556 10.045-4.327 2.663-2.77 4.16-6.528 4.16-10.446V41.364H0v73.863z" fill="#F5F5F5"/><path d="M110.795 11.821h-96.59c-3.768 0-7.38 1.557-10.045 4.327C1.497 18.918 0 22.676 0 26.594v14.773h125V26.594c0-3.918-1.497-7.675-4.16-10.446-2.664-2.77-6.277-4.327-10.045-4.327z" fill="#77B0E8"/><path d="M60.338 109.005h-30.91v-6.778c8.214-8.633 15.228-15.845 17.543-18.95 3.927-5.271 3.228-9.75 1.375-11.464-3.656-3.374-9.758-.251-13.957 3.365l-5.08-6.26a21.598 21.598 0 017.247-4.967 20.912 20.912 0 018.54-1.607c8.182 0 14 4.91 14 12.456-.063 4.314-1.627 8.459-4.4 11.668-2.347 3.049-13.637 14.344-13.637 14.344h19.265l.014 8.193zm4.15-19.91c0-9.1 1.85-15.873 5.551-20.319a20.762 20.762 0 017.583-5.276 20.066 20.066 0 019.025-1.392 29.128 29.128 0 015.93.473v7.767a23.327 23.327 0 00-5.325-.63c-5.113 0-9.991 1.274-12.398 5.978a21.152 21.152 0 00-1.784 8.397 12.12 12.12 0 014.35-3.966 11.59 11.59 0 015.63-1.38c8.344 0 12.64 5.954 12.64 14.564 0 9.664-5.443 15.954-15.057 15.954-10.747-.009-16.145-8.456-16.145-20.17zm15.969 12.391c4.389 0 6.199-3.427 6.199-8.051 0-4.317-1.85-7.233-6.018-7.233a6.434 6.434 0 00-4.685 1.736 6.955 6.955 0 00-2.181 4.649c-.009 4.488 2.42 8.899 6.676 8.899h.009zm-53.468-71.94a4.18 4.18 0 01-3.014-1.299 4.523 4.523 0 01-1.248-3.133V4.432c0-1.176.45-2.303 1.248-3.134A4.18 4.18 0 0126.99 0a4.18 4.18 0 013.013 1.298 4.524 4.524 0 011.248 3.134v20.682a4.524 4.524 0 01-1.248 3.133 4.18 4.18 0 01-3.013 1.299zm71.022 0a4.18 4.18 0 01-3.013-1.299 4.523 4.523 0 01-1.248-3.133V4.432c0-1.176.449-2.303 1.248-3.134A4.18 4.18 0 0198.011 0a4.18 4.18 0 013.013 1.298 4.524 4.524 0 011.248 3.134v20.682a4.524 4.524 0 01-1.248 3.133 4.179 4.179 0 01-3.013 1.299z" fill="#1A65AC"/></svg>