<svg width="40" height="45" fill="none" xmlns="http://www.w3.org/2000/svg"><path d="M0 39.886c0 1.357.479 2.657 1.331 3.616C2.184 44.462 3.34 45 4.545 45h30.91c1.205 0 2.361-.539 3.214-1.498.852-.959 1.331-2.26 1.331-3.616V14.318H0v25.568z" fill="#F5F5F5"/><path d="M35.455 4.092H4.545c-1.205 0-2.361.539-3.214 1.498C.48 6.548 0 7.85 0 9.204v5.114h40V9.205c0-1.356-.479-2.657-1.331-3.615-.853-.96-2.009-1.498-3.214-1.498z" fill="#77B0E8"/><path d="M19.308 37.733h-9.89v-2.347c2.627-2.988 4.872-5.485 5.613-6.56 1.256-1.824 1.033-3.374.44-3.968-1.17-1.168-3.123-.087-4.467 1.165L9.38 23.856a6.92 6.92 0 012.319-1.72 6.25 6.25 0 012.733-.555c2.618 0 4.48 1.7 4.48 4.311-.02 1.494-.52 2.928-1.408 4.04-.751 1.055-4.364 4.965-4.364 4.965h6.165l.004 2.836zm1.328-6.893c0-3.15.592-5.494 1.777-7.033a6.663 6.663 0 012.426-1.826c.92-.4 1.906-.564 2.888-.482a8.63 8.63 0 011.898.164v2.688a6.929 6.929 0 00-1.704-.218c-1.636 0-3.197.441-3.968 2.07a7.837 7.837 0 00-.57 2.906 4.01 4.01 0 011.392-1.373 3.487 3.487 0 011.801-.477c2.67 0 4.045 2.06 4.045 5.04 0 3.346-1.742 5.523-4.818 5.523-3.44-.003-5.167-2.927-5.167-6.982zm5.11 4.29c1.405 0 1.984-1.187 1.984-2.787 0-1.494-.592-2.504-1.925-2.504a1.971 1.971 0 00-1.5.601c-.41.413-.661.99-.698 1.61-.003 1.553.775 3.08 2.137 3.08h.002zM8.637 10.227c-.362 0-.709-.161-.965-.449a1.637 1.637 0 01-.399-1.085V1.534c0-.407.144-.797.4-1.085C7.927.162 8.274 0 8.636 0c.361 0 .708.162.964.45.256.287.4.677.4 1.084v7.16c0 .406-.144.796-.4 1.084-.256.288-.603.45-.964.45zm22.727 0c-.362 0-.709-.161-.965-.449A1.637 1.637 0 0130 8.693V1.534c0-.407.144-.797.4-1.085.255-.287.602-.449.964-.449.361 0 .708.162.964.45.255.287.4.677.4 1.084v7.16c0 .406-.145.796-.4 1.084-.256.288-.603.45-.964.45z" fill="#1A65AC"/></svg>