<svg width="44" height="44" fill="none" xmlns="http://www.w3.org/2000/svg"><path d="M2.75 23.375h38.5a2.751 2.751 0 012.75 2.75V38.5a2.75 2.75 0 01-2.75 2.75H2.75A2.75 2.75 0 010 38.5V26.125a2.751 2.751 0 012.75-2.75z" fill="#1A65AC"/><path d="M22 2.75c1.794 0 3.303 1.152 3.872 2.75h3.003C28.875 2.463 25.798 0 22 0c-3.796 0-6.875 2.463-6.875 5.5h3.003c.57-1.598 2.079-2.75 3.872-2.75z" fill="#124D85"/><path d="M12.375 5.5h19.25a8.252 8.252 0 018.25 8.25v27.5a2.75 2.75 0 01-2.75 2.75H6.875a2.75 2.75 0 01-2.75-2.75v-27.5a8.25 8.25 0 018.25-8.25z" fill="#C9DFF4"/><path d="M8.25 5.5h27.5a5.5 5.5 0 015.5 5.5v5.5a5.501 5.501 0 01-5.5 5.501H8.25a5.501 5.501 0 01-5.5-5.501V11a5.5 5.5 0 015.5-5.5z" fill="#1A65AC"/><path d="M11 34.375s1.06 2.75 2.105 2.75c1.016 0 2.02-2.75 2.02-2.75V5.5H11v28.875zM28.875 5.5v28.875s1.06 2.75 2.105 2.75c1.016 0 2.02-2.75 2.02-2.75V5.5h-4.125z" fill="#124D85"/><path d="M9.625 31.625H16.5V27.5H9.625v4.125zM27.5 27.5v4.125h6.875V27.5H27.5z" fill="#3089DE"/></svg>