<svg width="46" height="44" fill="none" xmlns="http://www.w3.org/2000/svg"><path d="M33.487 25c-.172.674-.668 2.34-1.486 5h3c-.771-2.491-1.205-3.9-1.3-4.226a16.546 16.546 0 01-.214-.774z" fill="#2F89DF"/><path d="M42.154 17H24.846a3.84 3.84 0 00-2.72 1.13 3.863 3.863 0 00-1.127 2.727v15.428c0 1.023.406 2.005 1.127 2.728a3.84 3.84 0 002.72 1.13h10.24l4.544 3.645a.96.96 0 001.562-.753v-2.892h.962a3.84 3.84 0 002.72-1.13A3.863 3.863 0 0046 36.285V20.857a3.863 3.863 0 00-1.127-2.727 3.84 3.84 0 00-2.72-1.13zM36.42 34.357l-.83-2.737h-4.18l-.832 2.737H27.96l4.046-11.543h2.972l4.062 11.543h-2.62z" fill="#2F89DF"/><path d="M10.93 9.058c.214.792.53 1.553.939 2.264a8.978 8.978 0 001.177 1.68 8.211 8.211 0 001.106-1.664 8.912 8.912 0 00.84-2.28h-4.061z" fill="#505050"/><path d="M18 20c0-.604.09-1.205.27-1.782a15.654 15.654 0 01-5.17-2.632 16.535 16.535 0 01-5.616 2.744 7.3 7.3 0 00-1.175-2.1 14.301 14.301 0 005.2-2.115 12.554 12.554 0 01-1.765-2.45 12.056 12.056 0 01-1.079-2.606h-.28c-.672 0-1.3.028-1.862.084V6.971c.637.074 1.278.107 1.92.1h3.332v-.9a5.116 5.116 0 00-.083-.952h2.418a4.96 4.96 0 00-.084.938v.91h3.544a15.44 15.44 0 001.933-.1v2.171a17.883 17.883 0 00-1.849-.084h-.322a11.175 11.175 0 01-1.009 2.746c-.439.834-.98 1.61-1.61 2.311a12.458 12.458 0 004.787 1.93A5.978 5.978 0 0124 14h2V4a4 4 0 00-4-4H4a4 4 0 00-4 4v16a4 4 0 004 4h1v3a1 1 0 001.625.781l4.726-3.78h6.65v-4z" fill="#505050"/></svg>