<svg width="44" height="44" viewBox="0 0 44 44" fill="none" xmlns="http://www.w3.org/2000/svg">
<path d="M2.75 23.375H41.25C42.768 23.375 44 24.607 44 26.125V38.5C44 40.0194 42.768 41.25 41.25 41.25H2.75C1.232 41.25 0 40.0194 0 38.5V26.125C0 24.607 1.232 23.375 2.75 23.375Z" fill="#1A65AC"/>
<path d="M22 2.75C23.7944 2.75 25.3027 3.90225 25.872 5.5H28.875C28.875 2.46262 25.7978 0 22 0C18.2036 0 15.125 2.46262 15.125 5.5H18.128C18.6973 3.90225 20.207 2.75 22 2.75Z" fill="#124D85"/>
<path d="M12.375 5.5H31.625C36.179 5.5 39.875 9.19463 39.875 13.75V41.25C39.875 42.7694 38.643 44 37.125 44H6.875C5.357 44 4.125 42.7694 4.125 41.25V13.75C4.125 9.19463 7.81825 5.5 12.375 5.5Z" fill="#C9DFF4"/>
<path d="M8.25 5.5H35.75C38.7874 5.5 41.25 7.96262 41.25 11V16.5C41.25 19.5374 38.7874 22.0014 35.75 22.0014H8.25C5.21262 22.0014 2.75 19.5374 2.75 16.5V11C2.75 7.96262 5.21262 5.5 8.25 5.5Z" fill="#1A65AC"/>
<path d="M11 34.375C11 34.375 12.0601 37.125 13.1051 37.125C14.1213 37.125 15.125 34.375 15.125 34.375V5.5H11V34.375ZM28.875 5.5V34.375C28.875 34.375 29.9351 37.125 30.9801 37.125C31.9963 37.125 33 34.375 33 34.375V5.5H28.875Z" fill="#124D85"/>
<path d="M9.625 31.625H16.5V27.5H9.625V31.625ZM27.5 27.5V31.625H34.375V27.5H27.5Z" fill="#3089DE"/>
</svg>
