<svg width="35" height="45" viewBox="0 0 35 45" fill="none" xmlns="http://www.w3.org/2000/svg">
<path d="M18.8533 36.7549H18.8531V29.3052C18.8531 29.0427 18.6649 28.83 18.4328 28.83H16.5673C16.3352 28.83 16.147 29.0427 16.147 29.3052V43.9894C16.147 44.2519 16.3352 44.4645 16.5673 44.4645H18.4328C18.6649 44.4645 18.8531 44.2519 18.8531 43.9894V42.7482H18.8533V36.7549Z" fill="#1A65AC"/>
<path d="M18.9872 1.68127V5.81892H16.0122V1.68127C16.0122 0.753744 16.6791 0 17.4997 0C18.3203 0 18.9872 0.753745 18.9872 1.68127Z" fill="#1A65AC"/>
<path d="M32.9414 4.28186H2.05908V27.0807H32.9414V4.28186Z" fill="#C9DFF4"/>
<path d="M29.8912 29.6205H21.9609V26.5751C21.9609 25.9474 22.4109 25.4385 22.966 25.4385H28.8862C29.4412 25.4385 29.8912 25.9474 29.8912 26.5751V29.6205Z" fill="#135089"/>
<path d="M35 4.52741C35 5.24138 34.4868 5.82168 33.8554 5.82168H1.1446C0.513172 5.82168 0 5.24138 0 4.52741C0 3.8134 0.513172 3.23578 1.1446 3.23578H33.8554C34.4868 3.23578 35 3.8134 35 4.52741Z" fill="#0C69C2"/>
<path d="M33.2328 31.9335H1.76718C0.791193 31.9335 0 31.039 0 29.9357V27.7958H35V29.9357C35 31.039 34.2088 31.9335 33.2328 31.9335Z" fill="#0C69C2"/>
<path d="M29.1963 44.9998H5.80995C5.32199 44.9998 5.20223 44.2178 5.67523 44.0384C7.9085 43.1887 11.5667 42.5828 15.7309 42.4474H19.2724V42.4609C23.4365 42.5997 27.0948 43.2023 29.331 44.052C29.7921 44.2314 29.6813 45.0133 29.1963 44.9998Z" fill="#0C69C2"/>
<path d="M18.8532 31.9327H16.147V33.1743H18.8532V31.9327Z" fill="#0E4C88"/>
</svg>
