<svg width="125" height="130" viewBox="0 0 125 130" fill="none" xmlns="http://www.w3.org/2000/svg">
<path d="M0 115.227C0 119.145 1.49655 122.903 4.16041 125.673C6.82428 128.444 10.4373 130 14.2045 130H110.795C114.563 130 118.176 128.444 120.84 125.673C123.503 122.903 125 119.145 125 115.227V41.3638H0V115.227Z" fill="#F5F5F5"/>
<path d="M110.795 11.8213H14.2045C10.4373 11.8213 6.82428 13.3777 4.16041 16.1481C1.49655 18.9185 0 22.6759 0 26.5939V41.3665H125V26.5939C125 22.6759 123.503 18.9185 120.84 16.1481C118.176 13.3777 114.563 11.8213 110.795 11.8213V11.8213Z" fill="#77B0E8"/>
<path d="M60.338 109.005H29.4287V102.227C37.6418 93.5941 44.6561 86.3821 46.9714 83.2768C50.8976 78.0059 50.1987 73.5268 48.3464 71.8131C44.6901 68.439 38.5878 71.562 34.3889 75.1784L29.3093 68.9176C31.3778 66.7703 33.843 65.0808 36.5562 63.951C39.2694 62.8212 42.1745 62.2744 45.0964 62.3437C53.2783 62.3437 59.0965 67.2542 59.0965 74.8002C59.0325 79.1144 57.4693 83.2588 54.6959 86.4677C52.3493 89.5168 41.0594 100.812 41.0594 100.812H60.3238L60.338 109.005Z" fill="#1A65AC"/>
<path d="M64.4879 89.0946C64.4879 79.9946 66.3382 73.2219 70.039 68.7763C72.16 66.4554 74.75 64.6533 77.6221 63.5001C80.4943 62.3469 83.5768 61.8714 86.6471 62.1079C88.6336 62.0627 90.6195 62.221 92.5761 62.5806V70.3481C90.8294 69.9342 89.0438 69.7231 87.2522 69.7188C82.1386 69.7188 77.2607 70.9922 74.8544 75.6958C73.6945 78.3317 73.0864 81.1938 73.0703 84.0926C74.1865 82.4206 75.6801 81.059 77.4202 80.1272C79.1602 79.1954 81.0935 78.7217 83.0505 78.7478C91.3943 78.7478 95.6898 84.7012 95.6898 93.3107C95.6898 102.975 90.2466 109.265 80.6329 109.265C69.8856 109.256 64.4879 100.809 64.4879 89.0946ZM80.4567 101.486C84.846 101.486 86.6556 98.0586 86.6556 93.4348C86.6556 89.1182 84.8062 86.2021 80.6385 86.2021C78.9186 86.1217 77.2368 86.7449 75.9534 87.9383C74.6699 89.1317 73.8869 90.8004 73.772 92.5869C73.7635 97.0748 76.1925 101.486 80.4482 101.486H80.4567Z" fill="#1A65AC"/>
<path d="M26.9886 29.5455C25.8584 29.5455 24.7745 29.0786 23.9754 28.2475C23.1762 27.4163 22.7273 26.2891 22.7273 25.1137V4.43183C22.7273 3.25644 23.1762 2.12918 23.9754 1.29805C24.7745 0.466924 25.8584 0 26.9886 0C28.1188 0 29.2026 0.466924 30.0018 1.29805C30.8009 2.12918 31.2499 3.25644 31.2499 4.43183V25.1137C31.2499 26.2891 30.8009 27.4163 30.0018 28.2475C29.2026 29.0786 28.1188 29.5455 26.9886 29.5455Z" fill="#1A65AC"/>
<path d="M98.0112 29.5455C96.8811 29.5455 95.7972 29.0786 94.9981 28.2475C94.1989 27.4163 93.75 26.2891 93.75 25.1137V4.43183C93.75 3.25644 94.1989 2.12918 94.9981 1.29805C95.7972 0.466924 96.8811 0 98.0112 0C99.1414 0 100.225 0.466924 101.024 1.29805C101.823 2.12918 102.272 3.25644 102.272 4.43183V25.1137C102.272 26.2891 101.823 27.4163 101.024 28.2475C100.225 29.0786 99.1414 29.5455 98.0112 29.5455Z" fill="#1A65AC"/>
</svg>
