<svg width="40" height="45" viewBox="0 0 40 45" fill="none" xmlns="http://www.w3.org/2000/svg">
<path d="M0 39.8864C0 41.2426 0.478895 42.5433 1.33133 43.5023C2.18377 44.4612 3.33993 45 4.54545 45H35.4545C36.6601 45 37.8162 44.4612 38.6687 43.5023C39.5211 42.5433 40 41.2426 40 39.8864V14.3182H0V39.8864Z" fill="#F5F5F5"/>
<path d="M35.4545 4.09177H4.54545C3.33993 4.09177 2.18377 4.63052 1.33133 5.5895C0.478895 6.54849 0 7.84915 0 9.20535V14.3189H40V9.20535C40 7.84915 39.5211 6.54849 38.6687 5.5895C37.8162 4.63052 36.6601 4.09177 35.4545 4.09177V4.09177Z" fill="#77B0E8"/>
<path d="M19.3081 37.7325H9.41709V35.3864C12.0453 32.398 14.2899 29.9015 15.0308 28.8266C16.2871 27.002 16.0635 25.4516 15.4708 24.8584C14.3008 23.6904 12.348 24.7714 11.0044 26.0233L9.37891 23.8561C10.0408 23.1128 10.8297 22.528 11.6979 22.1369C12.5661 21.7458 13.4958 21.5565 14.4308 21.5805C17.049 21.5805 18.9108 23.2803 18.9108 25.8924C18.8903 27.3857 18.3901 28.8203 17.5026 29.9311C16.7517 30.9866 13.1389 34.8965 13.1389 34.8965H19.3035L19.3081 37.7325Z" fill="#1A65AC"/>
<path d="M20.6362 30.8404C20.6362 27.6904 21.2284 25.346 22.4126 23.8072C23.0913 23.0038 23.9201 22.38 24.8392 21.9808C25.7583 21.5816 26.7447 21.417 27.7272 21.4989C28.3629 21.4832 28.9984 21.538 29.6245 21.6625V24.3513C29.0655 24.208 28.4941 24.1349 27.9208 24.1334C26.2845 24.1334 24.7235 24.5742 23.9535 26.2024C23.5824 27.1148 23.3878 28.1055 23.3826 29.109C23.7398 28.5302 24.2178 28.0589 24.7746 27.7363C25.3314 27.4138 25.95 27.2498 26.5763 27.2588C29.2463 27.2588 30.6208 29.3196 30.6208 32.2998C30.6208 35.6452 28.879 37.8225 25.8026 37.8225C22.3635 37.8195 20.6362 34.8955 20.6362 30.8404ZM25.7463 35.1297C27.1508 35.1297 27.7299 33.9434 27.7299 32.3428C27.7299 30.8486 27.1381 29.8392 25.8045 29.8392C25.2541 29.8113 24.7159 30.0271 24.3052 30.4402C23.8945 30.8533 23.6439 31.4309 23.6072 32.0493C23.6044 33.6028 24.3817 35.1297 25.7435 35.1297H25.7463Z" fill="#1A65AC"/>
<path d="M8.63657 10.2273C8.27491 10.2273 7.92807 10.0657 7.67234 9.77797C7.41662 9.49027 7.27295 9.10007 7.27295 8.6932V1.53409C7.27295 1.12723 7.41662 0.737024 7.67234 0.449326C7.92807 0.161627 8.27491 0 8.63657 0C8.99822 0 9.34506 0.161627 9.60079 0.449326C9.85652 0.737024 10.0002 1.12723 10.0002 1.53409V8.6932C10.0002 9.10007 9.85652 9.49027 9.60079 9.77797C9.34506 10.0657 8.99822 10.2273 8.63657 10.2273Z" fill="#1A65AC"/>
<path d="M31.3636 10.2273C31.0019 10.2273 30.6551 10.0657 30.3994 9.77797C30.1437 9.49027 30 9.10007 30 8.6932V1.53409C30 1.12723 30.1437 0.737024 30.3994 0.449326C30.6551 0.161627 31.0019 0 31.3636 0C31.7252 0 32.0721 0.161627 32.3278 0.449326C32.5835 0.737024 32.7272 1.12723 32.7272 1.53409V8.6932C32.7272 9.10007 32.5835 9.49027 32.3278 9.77797C32.0721 10.0657 31.7252 10.2273 31.3636 10.2273Z" fill="#1A65AC"/>
</svg>
