<svg width="46" height="44" viewBox="0 0 46 44" fill="none" xmlns="http://www.w3.org/2000/svg">
<path d="M33.487 25C33.3147 25.6737 32.8194 27.3403 32.001 30.0001H35.001C34.2295 27.5089 33.7959 26.1003 33.7001 25.7741C33.6027 25.4476 33.5333 25.1889 33.487 25Z" fill="#2F89DF"/>
<path d="M42.1536 17H24.8457C23.8256 17 22.8473 17.4064 22.126 18.1297C21.4047 18.8531 20.9995 19.8341 20.9995 20.8571V36.2854C20.9995 37.3084 21.4047 38.2895 22.126 39.0128C22.8473 39.7361 23.8256 40.1425 24.8457 40.1425H35.0853L39.6296 43.7884C39.771 43.902 39.9416 43.9732 40.1216 43.9938C40.3016 44.0143 40.4838 43.9835 40.6471 43.9048C40.8104 43.8261 40.9482 43.7027 41.0446 43.5489C41.141 43.3951 41.1922 43.217 41.1921 43.0353V40.1425H42.1536C43.1737 40.1425 44.152 39.7361 44.8733 39.0128C45.5946 38.2895 45.9998 37.3084 45.9998 36.2854V20.8571C45.9998 19.8341 45.5946 18.8531 44.8733 18.1297C44.152 17.4064 43.1737 17 42.1536 17ZM36.4209 34.3569L35.5901 31.6203H31.4102L30.5794 34.3569H27.9602L32.0064 22.8136H34.9776L39.0401 34.3569H36.4209Z" fill="#2F89DF"/>
<path d="M10.9307 9.05786C11.1442 9.84994 11.4595 10.611 11.8687 11.3219C12.1956 11.925 12.5905 12.4886 13.0457 13.0017C13.4807 12.4942 13.8521 11.9355 14.1517 11.3379C14.5348 10.6199 14.8178 9.85273 14.9927 9.05786H10.9307Z" fill="#505050"/>
<path d="M18.0003 20.0001C17.9997 19.3959 18.0904 18.7952 18.2693 18.2181C16.3973 17.6704 14.6442 16.7778 13.1002 15.5861C11.4197 16.8495 9.51358 17.7808 7.4841 18.3301C7.2113 17.5699 6.81423 16.8603 6.30909 16.2301C8.16516 15.8756 9.93257 15.1567 11.5092 14.1151C10.8243 13.3721 10.2317 12.5491 9.74414 11.6641C9.2838 10.8409 8.92165 9.9666 8.66512 9.05905H8.38512C7.71311 9.05905 7.0851 9.08705 6.52309 9.14305V6.97104C7.16001 7.04483 7.80097 7.07823 8.44212 7.07104H11.7752V6.17103C11.7773 5.8518 11.7495 5.53307 11.6922 5.21903H14.1102C14.0525 5.52832 14.0244 5.84241 14.0262 6.15703V7.06704H17.5702C18.216 7.07417 18.8617 7.04077 19.5033 6.96704V9.13805C18.8888 9.07815 18.2716 9.05011 17.6542 9.05405H17.3322C17.1177 10.0096 16.7784 10.9329 16.3232 11.8001C15.8844 12.6341 15.3436 13.4104 14.7132 14.1111C16.1567 15.0812 17.7874 15.7383 19.5003 16.0401C20.0617 15.399 20.7536 14.8853 21.5297 14.5335C22.3058 14.1817 23.1482 13.9998 24.0003 14.0001H26.0004V4.00002C26.0004 2.93915 25.5789 1.92173 24.8288 1.17158C24.0786 0.42143 23.0612 0 22.0003 0H4.00006C2.93917 0 1.92175 0.42143 1.17159 1.17158C0.421433 1.92173 0 2.93915 0 4.00002V20.0001C0 21.061 0.421433 22.0784 1.17159 22.8285C1.92175 23.5787 2.93917 24.0001 4.00006 24.0001H5.00007V27.0001C5 27.1886 5.05317 27.3732 5.15346 27.5327C5.25374 27.6922 5.39706 27.8202 5.5669 27.9018C5.73673 27.9835 5.92618 28.0154 6.1134 27.9941C6.30062 27.9727 6.478 27.8989 6.62509 27.7811L11.3512 24.0001H18.0003V20.0001Z" fill="#505050"/>
</svg>
