<svg width="38" height="44" viewBox="0 0 38 44" fill="none" xmlns="http://www.w3.org/2000/svg">
<path d="M37.1739 43.9999H19.8261C19.607 43.9999 19.3969 43.8991 19.242 43.7197C19.087 43.5403 19 43.297 19 43.0434V0.956519C19 0.702834 19.087 0.45954 19.242 0.280158C19.3969 0.100776 19.607 0 19.8261 0C19.9026 0.000134679 19.9788 0.0123634 20.0524 0.0363477L37.4002 5.77546C37.573 5.83246 37.725 5.95313 37.8333 6.11918C37.9415 6.28523 38 6.48761 38 6.69563V43.0434C38 43.297 37.9129 43.5403 37.758 43.7197C37.6031 43.8991 37.393 43.9999 37.1739 43.9999Z" fill="#FEFEFE"/>
<path d="M13.898 22.9564H0.826083C0.36985 22.9564 0 23.3847 0 23.9129V43.0433C0 43.5716 0.36985 43.9999 0.826083 43.9999H13.898C14.3543 43.9999 14.7241 43.5716 14.7241 43.0433V23.9129C14.7241 23.3847 14.3543 22.9564 13.898 22.9564Z" fill="#DDDDDD"/>
<path d="M33.8696 4.60864V39.2184C33.8696 39.4721 33.9567 39.7154 34.1116 39.8948C34.2665 40.0741 34.4767 40.1749 34.6958 40.1749C34.9149 40.1749 35.125 40.0741 35.2799 39.8948C35.4349 39.7154 35.5219 39.4721 35.5219 39.2184V5.15482L33.8696 4.60864Z" fill="#2F89DF" fill-opacity="0.25"/>
<path d="M29.7393 3.24207V39.2187C29.7393 39.4724 29.8263 39.7157 29.9812 39.8951C30.1361 40.0744 30.3462 40.1752 30.5653 40.1752C30.7844 40.1752 30.9945 40.0744 31.1494 39.8951C31.3043 39.7157 31.3914 39.4724 31.3914 39.2187V3.78919L29.7393 3.24207Z" fill="#2F89DF" fill-opacity="0.25"/>
<path d="M26.435 40.1747C26.6541 40.1747 26.8642 40.0739 27.0192 39.8945C27.1741 39.7151 27.2611 39.4718 27.2611 39.2182V2.42188L25.6089 1.87476V39.2182C25.6089 39.4718 25.6959 39.7151 25.8508 39.8945C26.0058 40.0739 26.2159 40.1747 26.435 40.1747Z" fill="#2F89DF" fill-opacity="0.25"/>
<path d="M22.3046 40.1744C22.5237 40.1744 22.7338 40.0736 22.8887 39.8942C23.0437 39.7148 23.1307 39.4715 23.1307 39.2178V1.05252L21.4785 0.506348V39.2178C21.4785 39.4715 21.5655 39.7148 21.7205 39.8942C21.8754 40.0736 22.0855 40.1744 22.3046 40.1744Z" fill="#2F89DF" fill-opacity="0.25"/>
<path d="M22.3044 15.3043H7.43497C7.21588 15.3043 7.00576 15.4051 6.85084 15.5845C6.69592 15.7639 6.60889 16.0072 6.60889 16.2608V43.0434C6.60889 43.2971 6.69592 43.5404 6.85084 43.7198C7.00576 43.8992 7.21588 44 7.43497 44H22.3044C22.5235 44 22.7337 43.8992 22.8886 43.7198C23.0435 43.5404 23.1305 43.2971 23.1305 43.0434V16.2608C23.1305 16.0072 23.0435 15.7639 22.8886 15.5845C22.7337 15.4051 22.5235 15.3043 22.3044 15.3043Z" fill="#363636"/>
<path d="M19.0611 19.1304H10.678C10.2556 19.1304 9.91309 19.527 9.91309 20.0163V22.0713C9.91309 22.5606 10.2556 22.9572 10.678 22.9572H19.0611C19.4836 22.9572 19.8261 22.5606 19.8261 22.0713V20.0163C19.8261 19.527 19.4836 19.1304 19.0611 19.1304Z" fill="#2F89DF"/>
<path d="M19.1421 24.8694H10.5971C10.2193 24.8694 9.91309 25.2241 9.91309 25.6618V27.9049C9.91309 28.3425 10.2193 28.6972 10.5971 28.6972H19.1421C19.5198 28.6972 19.8261 28.3425 19.8261 27.9049V25.6618C19.8261 25.2241 19.5198 24.8694 19.1421 24.8694Z" fill="#2F89DF"/>
<path d="M19.0611 30.6086H10.678C10.2556 30.6086 9.91309 31.0054 9.91309 31.4948V33.5503C9.91309 34.0397 10.2556 34.4364 10.678 34.4364H19.0611C19.4836 34.4364 19.8261 34.0397 19.8261 33.5503V31.4948C19.8261 31.0054 19.4836 30.6086 19.0611 30.6086Z" fill="#2F89DF"/>
<path d="M15.6955 37.3041H14.0434C13.8243 37.3041 13.6142 37.4049 13.4592 37.5842C13.3043 37.7636 13.2173 38.0069 13.2173 38.2606V44H16.5216V38.2606C16.5216 38.0069 16.4346 37.7636 16.2797 37.5842C16.1247 37.4049 15.9146 37.3041 15.6955 37.3041Z" fill="#FEFEFE"/>
</svg>
